<svg width="13" height="12" viewBox="0 0 13 12" fill="none" xmlns="http://www.w3.org/2000/svg">
    <g clip-path="url(#clip0_2083_105411)">
        <path d="M10.3281 3.75H5.26562V2.4375C5.26562 2.0894 5.40391 1.75556 5.65005 1.50942C5.89619 1.26328 6.23003 1.125 6.57812 1.125C6.92622 1.125 7.26006 1.26328 7.5062 1.50942C7.75234 1.75556 7.89062 2.0894 7.89062 2.4375C7.89062 2.53696 7.93013 2.63234 8.00046 2.70266C8.07079 2.77299 8.16617 2.8125 8.26562 2.8125C8.36508 2.8125 8.46046 2.77299 8.53079 2.70266C8.60112 2.63234 8.64062 2.53696 8.64062 2.4375C8.64062 1.89049 8.42333 1.36589 8.03653 0.979092C7.64974 0.592299 7.12513 0.375 6.57812 0.375C6.03112 0.375 5.50651 0.592299 5.11972 0.979092C4.73292 1.36589 4.51562 1.89049 4.51562 2.4375V3.75H2.82812C2.62921 3.75 2.43845 3.82902 2.29779 3.96967C2.15714 4.11032 2.07813 4.30109 2.07812 4.5V9.75C2.07813 9.94891 2.15714 10.1397 2.29779 10.2803C2.43845 10.421 2.62921 10.5 2.82812 10.5H10.3281C10.527 10.5 10.7178 10.421 10.8585 10.2803C10.9991 10.1397 11.0781 9.94891 11.0781 9.75V4.5C11.0781 4.30109 10.9991 4.11032 10.8585 3.96967C10.7178 3.82902 10.527 3.75 10.3281 3.75Z" fill="#FFF"/>
    </g>
    <defs>
        <clipPath id="clip0_2083_105411">
            <rect width="12" height="12" fill="white" transform="translate(0.578125)"/>
        </clipPath>
    </defs>
</svg>
