<svg width="13" height="12" viewBox="0 0 13 12" fill="none" xmlns="http://www.w3.org/2000/svg">
<g clip-path="url(#clip0_2083_105407)">
<path d="M7.96127 4.75815C7.74346 4.97596 7.44838 5.09884 7.14035 5.1H4.85312V2.775H7.14035C7.44838 2.77616 7.74346 2.89904 7.96127 3.11685C8.17902 3.3346 8.30189 3.62957 8.30312 3.9375C8.30189 4.24543 8.17902 4.5404 7.96127 4.75815ZM6.42812 1.125V1.725H5.97813V1.125C5.97813 0.985761 5.92281 0.852225 5.82436 0.753769C5.7259 0.655312 5.59236 0.6 5.45312 0.6C5.31389 0.6 5.18035 0.655312 5.08189 0.753769C4.98344 0.852225 4.92813 0.985761 4.92813 1.125V1.725H3.57812C3.43889 1.725 3.30535 1.78031 3.20689 1.87877C3.10844 1.97723 3.05312 2.11076 3.05312 2.25C3.05312 2.38924 3.10844 2.52277 3.20689 2.62123C3.30535 2.71969 3.43889 2.775 3.57812 2.775H3.80313V8.85H3.57812C3.43889 8.85 3.30535 8.90531 3.20689 9.00377C3.10844 9.10223 3.05312 9.23576 3.05312 9.375C3.05312 9.51424 3.10844 9.64777 3.20689 9.74623C3.30535 9.84469 3.43889 9.9 3.57812 9.9H4.92813V10.5C4.92813 10.6392 4.98344 10.7728 5.08189 10.8712C5.18035 10.9697 5.31389 11.025 5.45312 11.025C5.59236 11.025 5.7259 10.9697 5.82436 10.8712C5.92281 10.7728 5.97813 10.6392 5.97813 10.5V9.9H6.42812V10.5C6.42812 10.6392 6.48344 10.7728 6.58189 10.8712C6.68035 10.9697 6.81389 11.025 6.95312 11.025C7.09236 11.025 7.2259 10.9697 7.32436 10.8712C7.42281 10.7728 7.47813 10.6392 7.47813 10.5V9.9H7.70306C7.70308 9.9 7.7031 9.9 7.70312 9.9C8.25792 9.90022 8.79567 9.70821 9.22486 9.35666C9.65408 9.00508 9.94822 8.51566 10.0573 7.97166C10.1663 7.42766 10.0835 6.86268 9.82292 6.37285C9.59587 5.94604 9.24607 5.59925 8.82106 5.37578C9.04863 5.10954 9.21043 4.79224 9.29184 4.4495C9.38978 4.03716 9.36723 3.60536 9.22687 3.20546C9.08651 2.80556 8.83424 2.45439 8.50007 2.19371C8.20207 1.96125 7.85012 1.80947 7.47813 1.75181V1.125C7.47813 0.985762 7.42281 0.852226 7.32436 0.753769C7.2259 0.655312 7.09236 0.6 6.95312 0.6C6.81389 0.6 6.68035 0.655312 6.58189 0.753769C6.48344 0.852226 6.42812 0.985762 6.42812 1.125ZM7.70312 8.85H4.85312V6.15H7.70312C8.06117 6.15 8.40454 6.29223 8.65772 6.54541C8.91089 6.79858 9.05312 7.14196 9.05312 7.5C9.05312 7.85804 8.91089 8.20142 8.65772 8.45459C8.40454 8.70777 8.06117 8.85 7.70312 8.85Z" fill="white" stroke="white" stroke-width="0.3"/>
</g>
<defs>
<clipPath id="clip0_2083_105407">
<rect width="12" height="12" fill="#222B45" transform="translate(0.578125)"/>
</clipPath>
</defs>
</svg>
