<svg width="13" height="12" viewBox="0 0 13 12" fill="none" xmlns="http://www.w3.org/2000/svg">
    <g clip-path="url(#clip0_2083_105406)">
        <path d="M11.0781 2.25H2.07812C1.87921 2.25 1.68845 2.32902 1.54779 2.46967C1.40714 2.61032 1.32813 2.80109 1.32812 3V4.54219V8.99531C1.32813 9.19423 1.40714 9.38499 1.54779 9.52564C1.68845 9.6663 1.87921 9.74531 2.07812 9.74531H11.0781C11.277 9.74531 11.4678 9.6663 11.6085 9.52564C11.7491 9.38499 11.8281 9.19423 11.8281 8.99531V3C11.8281 2.80109 11.7491 2.61032 11.6085 2.46967C11.4678 2.32902 11.277 2.25 11.0781 2.25V2.25ZM6.95312 8.25H6.20312C6.10367 8.25 6.00829 8.21049 5.93796 8.14017C5.86763 8.06984 5.82812 7.97446 5.82812 7.875C5.82812 7.77554 5.86763 7.68016 5.93796 7.60984C6.00829 7.53951 6.10367 7.5 6.20312 7.5H6.95312C7.05258 7.5 7.14796 7.53951 7.21829 7.60984C7.28862 7.68016 7.32812 7.77554 7.32812 7.875C7.32812 7.97446 7.28862 8.06984 7.21829 8.14017C7.14796 8.21049 7.05258 8.25 6.95312 8.25ZM9.95312 8.25H8.45312C8.35367 8.25 8.25829 8.21049 8.18796 8.14017C8.11763 8.06984 8.07812 7.97446 8.07812 7.875C8.07812 7.77554 8.11763 7.68016 8.18796 7.60984C8.25829 7.53951 8.35367 7.5 8.45312 7.5H9.95312C10.0526 7.5 10.148 7.53951 10.2183 7.60984C10.2886 7.68016 10.3281 7.77554 10.3281 7.875C10.3281 7.97446 10.2886 8.06984 10.2183 8.14017C10.148 8.21049 10.0526 8.25 9.95312 8.25ZM2.07812 4.16719V3H11.0781V4.16719H2.07812Z" fill="#FFF"/>
    </g>
    <defs>
        <clipPath id="clip0_2083_105406">
            <rect width="12" height="12" fill="white" transform="translate(0.578125)"/>
        </clipPath>
    </defs>
</svg>
