<svg width="12" height="14" viewBox="0 0 12 14" fill="none" xmlns="http://www.w3.org/2000/svg">
<path fill-rule="evenodd" clip-rule="evenodd" d="M0.333008 5.87842C0.333008 2.81185 2.8956 0.333252 5.9953 0.333252C9.10375 0.333252 11.6663 2.81185 11.6663 5.87842C11.6663 7.42371 11.1043 8.85834 10.1793 10.0743C9.15888 11.4156 7.90111 12.5842 6.48537 13.5015C6.16135 13.7135 5.86892 13.7295 5.51331 13.5015C4.0895 12.5842 2.83173 11.4156 1.82001 10.0743C0.89433 8.85834 0.333008 7.42371 0.333008 5.87842ZM4.12916 6.05109C4.12916 7.07839 4.96745 7.88637 5.99531 7.88637C7.02384 7.88637 7.87019 7.07839 7.87019 6.05109C7.87019 5.03178 7.02384 4.18447 5.99531 4.18447C4.96745 4.18447 4.12916 5.03178 4.12916 6.05109Z" fill="white"/>
</svg>
