<svg width="13" height="12" viewBox="0 0 13 12" fill="none" xmlns="http://www.w3.org/2000/svg">
    <g clip-path="url(#clip0_2083_105408)">
        <path d="M11.0688 8.00156C11.0344 7.96185 10.992 7.93 10.9443 7.90816C10.8965 7.88632 10.8447 7.87501 10.7922 7.875H10.3281V3C10.3269 2.60256 10.1685 2.22174 9.88743 1.94071C9.60639 1.65967 9.22558 1.50124 8.82813 1.5H2.45313C2.05569 1.50124 1.67488 1.65967 1.39384 1.94071C1.1128 2.22174 0.954369 2.60256 0.953133 3C0.951941 3.36916 1.08908 3.72538 1.33751 3.99844C1.3697 4.03525 1.40887 4.06533 1.45275 4.08692C1.49663 4.10852 1.54436 4.12121 1.59317 4.12426C1.64198 4.12731 1.69091 4.12066 1.73714 4.1047C1.78337 4.08873 1.82598 4.06377 1.86251 4.03125C1.89947 3.99864 1.92965 3.95907 1.9513 3.91479C1.97296 3.87052 1.98568 3.8224 1.98872 3.77321C1.99177 3.72401 1.98509 3.6747 1.96906 3.62809C1.95304 3.58148 1.92798 3.53848 1.89532 3.50156C1.81401 3.41109 1.75592 3.3022 1.72607 3.18428C1.69622 3.06637 1.69549 2.94295 1.72396 2.82469C1.75243 2.70643 1.80923 2.59687 1.88948 2.50545C1.96972 2.41404 2.071 2.34351 2.18457 2.29995C2.29815 2.25639 2.42061 2.24112 2.5414 2.25543C2.6622 2.26975 2.7777 2.31323 2.87794 2.38213C2.97819 2.45103 3.06017 2.54327 3.11682 2.65091C3.17348 2.75856 3.2031 2.87836 3.20313 3V9C3.20437 9.39744 3.3628 9.77826 3.64384 10.0593C3.92488 10.3403 4.30569 10.4988 4.70313 10.5H9.95313C10.3506 10.4988 10.7314 10.3403 11.0124 10.0593C11.2935 9.77826 11.4519 9.39744 11.4531 9C11.4543 8.63084 11.3172 8.27462 11.0688 8.00156V8.00156ZM5.45313 4.5H8.45313C8.55259 4.5 8.64797 4.53951 8.7183 4.60984C8.78862 4.68016 8.82813 4.77554 8.82813 4.875C8.82813 4.97446 8.78862 5.06984 8.7183 5.14016C8.64797 5.21049 8.55259 5.25 8.45313 5.25H5.45313C5.35368 5.25 5.25829 5.21049 5.18797 5.14016C5.11764 5.06984 5.07813 4.97446 5.07813 4.875C5.07813 4.77554 5.11764 4.68016 5.18797 4.60984C5.25829 4.53951 5.35368 4.5 5.45313 4.5V4.5ZM5.07813 6.375C5.07813 6.27554 5.11764 6.18016 5.18797 6.10983C5.25829 6.03951 5.35368 6 5.45313 6H8.45313C8.55259 6 8.64797 6.03951 8.7183 6.10983C8.78862 6.18016 8.82813 6.27554 8.82813 6.375C8.82813 6.47446 8.78862 6.56984 8.7183 6.64017C8.64797 6.71049 8.55259 6.75 8.45313 6.75H5.45313C5.35368 6.75 5.25829 6.71049 5.18797 6.64017C5.11764 6.56984 5.07813 6.47446 5.07813 6.375ZM9.95313 9.75H6.00157C6.13302 9.52186 6.20251 9.2633 6.20313 9C6.20401 8.87349 6.18825 8.74741 6.15626 8.625H10.6047C10.6691 8.73939 10.7026 8.8686 10.7018 8.99988C10.701 9.13116 10.666 9.25997 10.6002 9.37357C10.5344 9.48717 10.4401 9.58165 10.3266 9.64767C10.2131 9.71368 10.0844 9.74895 9.95313 9.75V9.75Z" fill="#FFF"/>
    </g>
    <defs>
        <clipPath id="clip0_2083_105408">
            <rect width="12" height="12" fill="white" transform="translate(0.578125)"/>
        </clipPath>
    </defs>
</svg>
