<svg width="13" height="12" viewBox="0 0 13 12" fill="none" xmlns="http://www.w3.org/2000/svg">
    <g clip-path="url(#clip0_2083_105412)">
        <path d="M10.4634 6.88706C9.98109 7.36536 9.36664 7.68837 8.69917 7.81451C8.0317 7.94065 7.34175 7.86416 6.71813 7.59487L4.28063 10.4167C4.27594 10.4261 4.26656 10.4308 4.26188 10.4355C4.12295 10.575 3.95785 10.6856 3.77606 10.7611C3.59426 10.8366 3.39935 10.8755 3.2025 10.8755C3.00565 10.8755 2.81074 10.8366 2.62894 10.7611C2.44715 10.6856 2.28205 10.575 2.14313 10.4355C2.00366 10.2966 1.89301 10.1315 1.8175 9.94968C1.74199 9.76789 1.70313 9.57297 1.70312 9.37612C1.70313 9.17927 1.74199 8.98436 1.8175 8.80256C1.89301 8.62077 2.00366 8.45567 2.14313 8.31675L2.16188 8.298L4.98375 5.8605C4.71194 5.24131 4.6324 4.55475 4.75544 3.88983C4.87848 3.2249 5.19842 2.61226 5.67379 2.13133C6.14916 1.6504 6.75804 1.32336 7.4215 1.19261C8.08495 1.06185 8.77239 1.1334 9.39469 1.398C9.45098 1.42164 9.50055 1.45884 9.53898 1.50627C9.57742 1.5537 9.60354 1.6099 9.615 1.66987C9.62683 1.73027 9.62361 1.79265 9.60562 1.85151C9.58764 1.91037 9.55544 1.9639 9.51188 2.00737L7.68844 3.83081L7.86187 4.71675L8.74781 4.89018L10.5713 3.06675C10.6147 3.02318 10.6683 2.99099 10.7271 2.973C10.786 2.95502 10.8484 2.9518 10.9087 2.96362C10.9687 2.97509 11.0249 3.0012 11.0724 3.03964C11.1198 3.07808 11.157 3.12765 11.1806 3.18393C11.4452 3.8021 11.5183 4.48543 11.3905 5.14559C11.2626 5.80575 10.9397 6.41238 10.4634 6.88706Z" fill="#FFF"/>
    </g>
    <defs>
        <clipPath id="clip0_2083_105412">
            <rect width="12" height="12" fill="white" transform="translate(0.578125)"/>
        </clipPath>
    </defs>
</svg>
