<svg width="13" height="12" viewBox="0 0 13 12" fill="none" xmlns="http://www.w3.org/2000/svg">
    <g clip-path="url(#clip0_2083_105414)">
        <path d="M10.3281 1.875H2.82812C2.62921 1.875 2.43845 1.95402 2.29779 2.09467C2.15714 2.23532 2.07813 2.42609 2.07812 2.625V5.37656C2.07812 9.56719 5.63125 10.9594 6.34375 11.1938C6.49599 11.2438 6.66026 11.2438 6.8125 11.1938C7.525 10.9594 11.0781 9.56719 11.0781 5.37656V2.625C11.0781 2.42609 10.9991 2.23532 10.8585 2.09467C10.7178 1.95402 10.527 1.875 10.3281 1.875ZM8.89844 5.14688L6.15156 7.77188C6.08055 7.83868 5.98656 7.8756 5.88906 7.875C5.793 7.87537 5.70056 7.83839 5.63125 7.77188L4.25781 6.45938C4.21972 6.42614 4.18874 6.38554 4.16673 6.34003C4.14473 6.29452 4.13215 6.24502 4.12976 6.19452C4.12737 6.14403 4.13522 6.09357 4.15283 6.04618C4.17044 5.99879 4.19745 5.95545 4.23223 5.91877C4.26702 5.88208 4.30887 5.85281 4.35525 5.83271C4.40164 5.81261 4.45161 5.8021 4.50217 5.80181C4.55272 5.80152 4.60281 5.81145 4.64943 5.83101C4.69605 5.85056 4.73823 5.87935 4.77344 5.91562L5.88906 6.97969L8.38281 4.60312C8.45573 4.53951 8.55041 4.50654 8.64707 4.51112C8.74372 4.51569 8.83487 4.55745 8.90145 4.62766C8.96804 4.69788 9.0049 4.79111 9.00434 4.88788C9.00378 4.98464 8.96583 5.07744 8.89844 5.14688Z" fill="#FFF"/>
    </g>
    <defs>
        <clipPath id="clip0_2083_105414">
            <rect width="12" height="12" fill="white" transform="translate(0.578125)"/>
        </clipPath>
    </defs>
</svg>
