<svg width="13" height="12" viewBox="0 0 13 12" fill="none" xmlns="http://www.w3.org/2000/svg">
    <g clip-path="url(#clip0_2083_105415)">
        <path d="M11.0734 3.06563L10.5016 6.20156C10.4544 6.46062 10.3178 6.69491 10.1157 6.86365C9.91355 7.03239 9.65863 7.12487 9.39531 7.125H3.95781L4.16406 8.25H9.20312C9.42563 8.25 9.64314 8.31598 9.82814 8.4396C10.0131 8.56321 10.1573 8.73892 10.2425 8.94448C10.3276 9.15005 10.3499 9.37625 10.3065 9.59448C10.2631 9.81271 10.156 10.0132 9.99862 10.1705C9.84129 10.3278 9.64083 10.435 9.4226 10.4784C9.20437 10.5218 8.97817 10.4995 8.77261 10.4144C8.56704 10.3292 8.39134 10.185 8.26772 10C8.1441 9.81501 8.07812 9.59751 8.07812 9.375C8.07817 9.24715 8.10037 9.12027 8.14375 9H5.3875C5.43088 9.12027 5.45308 9.24715 5.45312 9.375C5.45346 9.55651 5.40988 9.73541 5.32609 9.89642C5.2423 10.0574 5.12079 10.1958 4.97194 10.2997C4.8231 10.4035 4.65132 10.4699 4.47129 10.493C4.29125 10.5161 4.1083 10.4952 3.93805 10.4323C3.7678 10.3694 3.6153 10.2662 3.49358 10.1315C3.37186 9.99688 3.28453 9.83478 3.23903 9.65906C3.19354 9.48334 3.19124 9.29923 3.23233 9.12243C3.27342 8.94563 3.35668 8.7814 3.475 8.64375L2.17656 1.5H1.32812C1.22867 1.5 1.13329 1.46049 1.06296 1.39017C0.992634 1.31984 0.953125 1.22446 0.953125 1.125C0.953125 1.02554 0.992634 0.930161 1.06296 0.859835C1.13329 0.789509 1.22867 0.75 1.32812 0.75H2.17656C2.35161 0.750383 2.52101 0.811985 2.65542 0.924133C2.78983 1.03628 2.88077 1.19191 2.9125 1.36406L3.14219 2.625H10.7031C10.7579 2.62511 10.8119 2.63736 10.8614 2.66087C10.9108 2.68438 10.9544 2.71855 10.9891 2.76094C11.0253 2.80199 11.0518 2.85076 11.0664 2.90355C11.081 2.95634 11.0834 3.01177 11.0734 3.06563Z" fill="#FFF"/>
    </g>
    <defs>
        <clipPath id="clip0_2083_105415">
            <rect width="12" height="12" fill="white" transform="translate(0.578125)"/>
        </clipPath>
    </defs>
</svg>
