<svg width="13" height="12" viewBox="0 0 13 12" fill="none" xmlns="http://www.w3.org/2000/svg">
    <g clip-path="url(#clip0_2083_105410)">
        <path d="M10.0567 9.41294C10.9522 8.50283 11.454 7.27722 11.454 6.00044C11.454 4.72367 10.9522 3.49805 10.0567 2.58794C10.0483 2.57475 10.0371 2.56356 10.0239 2.55513C10.0155 2.54194 10.0043 2.53074 9.99107 2.52232C9.08096 1.62685 7.85534 1.125 6.57857 1.125C5.30179 1.125 4.07618 1.62685 3.16607 2.52232C3.15288 2.53074 3.14168 2.54194 3.13326 2.55513C3.12007 2.56356 3.10887 2.57475 3.10044 2.58794C2.20498 3.49805 1.70312 4.72367 1.70312 6.00044C1.70312 7.27722 2.20498 8.50283 3.10044 9.41294L3.13326 9.44576C3.14168 9.45895 3.15288 9.47014 3.16607 9.47857C4.07618 10.374 5.30179 10.8759 6.57857 10.8759C7.85534 10.8759 9.08096 10.374 9.99107 9.47857C10.0043 9.47014 10.0155 9.45895 10.0239 9.44576C10.0371 9.43733 10.0483 9.42613 10.0567 9.41294ZM5.07857 6.00044C5.07857 5.70377 5.16654 5.41376 5.33136 5.16709C5.49619 4.92041 5.73045 4.72816 6.00454 4.61462C6.27863 4.50109 6.58023 4.47139 6.8712 4.52927C7.16218 4.58714 7.42945 4.73 7.63923 4.93978C7.84901 5.14956 7.99187 5.41684 8.04975 5.70781C8.10762 5.99878 8.07792 6.30038 7.96439 6.57447C7.85086 6.84856 7.6586 7.08283 7.41192 7.24765C7.16525 7.41247 6.87524 7.50044 6.57857 7.50044C6.18112 7.49921 5.80031 7.34077 5.51927 7.05974C5.23824 6.7787 5.0798 6.39789 5.07857 6.00044ZM9.21763 2.83169L7.88169 4.16763C7.50126 3.8965 7.04573 3.75079 6.57857 3.75079C6.11141 3.75079 5.65588 3.8965 5.27544 4.16763L3.93951 2.83169C4.68018 2.21395 5.61409 1.87561 6.57857 1.87561C7.54304 1.87561 8.47695 2.21395 9.21763 2.83169ZM3.93951 9.16919L5.27544 7.83326C5.65588 8.10439 6.11141 8.2501 6.57857 8.2501C7.04573 8.2501 7.50126 8.10439 7.88169 7.83326L9.21763 9.16919C8.47695 9.78694 7.54304 10.1253 6.57857 10.1253C5.61409 10.1253 4.68018 9.78694 3.93951 9.16919Z" fill="#FFF"/>
    </g>
    <defs>
        <clipPath id="clip0_2083_105410">
            <rect width="12" height="12" fill="white" transform="translate(0.578125)"/>
        </clipPath>
    </defs>
</svg>
