<svg width="13" height="12" viewBox="0 0 13 12" fill="none" xmlns="http://www.w3.org/2000/svg">
    <g clip-path="url(#clip0_2083_105409)">
        <path d="M10.3281 1.875H2.82812C2.2068 1.875 1.70312 2.37868 1.70312 3V8.25C1.70312 8.87132 2.2068 9.375 2.82812 9.375H10.3281C10.9494 9.375 11.4531 8.87132 11.4531 8.25V3C11.4531 2.37868 10.9494 1.875 10.3281 1.875Z" fill="#FFF"/>
        <path d="M8.07812 10.125H5.07812C4.97867 10.125 4.88329 10.1645 4.81296 10.2348C4.74263 10.3052 4.70312 10.4005 4.70312 10.5C4.70312 10.5995 4.74263 10.6948 4.81296 10.7652C4.88329 10.8355 4.97867 10.875 5.07812 10.875H8.07812C8.17758 10.875 8.27296 10.8355 8.34329 10.7652C8.41362 10.6948 8.45312 10.5995 8.45312 10.5C8.45312 10.4005 8.41362 10.3052 8.34329 10.2348C8.27296 10.1645 8.17758 10.125 8.07812 10.125Z" fill="#FFF"/>
    </g>
    <defs>
        <clipPath id="clip0_2083_105409">
            <rect width="12" height="12" fill="white" transform="translate(0.578125)"/>
        </clipPath>
    </defs>
</svg>
